<?xml version="1.0" encoding="UTF-8" standalone="no"?><!DOCTYPE svg PUBLIC "-//W3C//DTD SVG 1.1//EN" "http://www.w3.org/Graphics/SVG/1.1/DTD/svg11.dtd"><svg width="100%" height="100%" viewBox="0 0 1667 424" version="1.1" xmlns="http://www.w3.org/2000/svg" xmlns:xlink="http://www.w3.org/1999/xlink" xml:space="preserve" xmlns:serif="http://www.serif.com/" style="fill-rule:evenodd;clip-rule:evenodd;stroke-linejoin:round;stroke-miterlimit:2;"><rect id="Artboard1" x="0" y="0" width="1666.67" height="423.75" style="fill:none;"/><clipPath id="_clip1"><rect x="0" y="0" width="1666.67" height="423.75"/></clipPath><g clip-path="url(#_clip1)"><g><path d="M1215.19,0.023c9.675,-0.253 18.889,1.623 27.642,5.629c10.166,7.616 14.609,17.851 13.309,30.705c1.105,16.25 -5.723,27.509 -20.476,33.775c-11.691,3.329 -23.29,2.988 -34.807,-1.023c-8.006,-3.546 -13.299,-9.516 -15.868,-17.912c-1.577,-8.464 -1.915,-16.993 -1.024,-25.587c1.403,-8.553 5.672,-15.206 12.797,-19.958c5.979,-2.853 12.121,-4.729 18.427,-5.629Z" style="fill-opacity:0.98;"/><path d="M-0,16.398l70.639,0l-0,108.491l88.042,0l0,-108.491l69.615,0l0,286.579l-69.615,0l0,-114.631l-88.042,-0l-0,114.631l-70.639,0l-0,-286.579Z" style="fill-opacity:0.99;"/><path d="M592.752,16.398l3.071,0l0,72.669l41.974,-0l-0,58.339l-41.974,-0c-0.171,29.001 0,58.001 0.512,86.997c1.116,6.231 4.699,10.154 10.749,11.77c15.353,0.512 30.709,0.683 46.069,0.512l0,59.363c-19.454,0.171 -38.905,-0 -58.354,-0.512c-20.035,-1.067 -37.269,-8.403 -51.699,-22.005c-9.073,-11.329 -14.191,-24.294 -15.356,-38.893c-0.512,-32.409 -0.683,-64.82 -0.512,-97.232l-32.76,-0l-0,-58.339l32.76,-0l-0,-51.175c22.193,-6.373 44.032,-13.537 65.52,-21.494Z" style="fill-opacity:0.98;"/><path d="M1606.27,16.398c2.038,23.858 2.724,48.081 2.048,72.669l42.997,-0l0,58.339l-42.997,-0c-0.174,26.613 -0,53.224 0.512,79.833c-0.307,9.125 3.614,15.437 11.773,18.934c15.356,0.512 30.712,0.683 46.069,0.512l-0,59.363c-19.452,0.171 -38.903,-0 -58.354,-0.512c-17.506,-1.169 -33.2,-6.968 -47.093,-17.399c-11.947,-11.589 -18.601,-25.747 -19.963,-42.475c-0.512,-32.75 -0.686,-65.502 -0.512,-98.256l-32.76,-0l0,-58.339l32.76,-0l0,-51.175c22.195,-6.373 44.032,-13.537 65.52,-21.494Z" style="fill-opacity:0.99;"/><path d="M355.242,85.996c23.937,-1.619 47.483,0.599 70.638,6.653c25.501,8.782 41.369,26.351 47.605,52.71c8.159,36.568 7.306,72.903 -2.56,109.002c-8.106,24.138 -24.486,39.491 -49.14,46.058c-24.652,5.744 -49.562,7.109 -74.733,4.094c-21.645,-1.857 -40.243,-10.216 -55.795,-25.076c-7.619,-9.775 -13.078,-20.693 -16.38,-32.752c-6.629,-30.906 -7.31,-61.952 -2.047,-93.138c4.575,-31.902 22.149,-52.542 52.723,-61.922c9.924,-2.507 19.82,-4.383 29.689,-5.629Zm11.261,60.386c10.955,-0.874 21.534,0.662 31.736,4.606c5.171,2.784 8.413,7.049 9.726,12.794c2.98,19.39 3.321,38.836 1.024,58.339c-1.764,12.339 -8.761,19.675 -20.987,22.005c-11.786,2.399 -23.388,1.717 -34.808,-2.047c-8.296,-4.456 -12.903,-11.449 -13.821,-20.981c-1.572,-14.633 -1.913,-29.303 -1.023,-44.011c0.398,-18.645 9.783,-28.88 28.153,-30.705Z" style="fill-opacity:0.99;"/><path d="M1027.85,85.996c22.482,-1.32 44.656,0.557 66.544,5.629c26.423,7.308 43.315,24.196 50.676,50.664c9.08,36.943 8.742,73.788 -1.024,110.537c-7.341,23.711 -22.861,39.234 -46.581,46.569c-32.658,8.468 -65.418,8.809 -98.28,1.024c-32.627,-10.423 -50.885,-32.769 -54.771,-67.039c-3.911,-28.778 -3.23,-57.436 2.048,-85.974c6.461,-30.341 24.717,-49.275 54.771,-56.804c8.957,-1.891 17.833,-3.426 26.617,-4.606Zm11.261,60.386c8.999,-0.418 17.875,0.434 26.618,2.559c8.149,2.348 13.104,7.637 14.844,15.864c3.696,21.576 3.348,43.069 -1.024,64.481c-3.501,8.493 -9.817,13.439 -18.939,14.84c-11.794,2.398 -23.393,1.716 -34.807,-2.047c-8.518,-3.883 -13.125,-10.535 -13.821,-19.958c-3.471,-20.275 -2.785,-40.404 2.047,-60.386c5.58,-9.697 13.944,-14.814 25.082,-15.353Z" style="fill-opacity:0.99;"/><path d="M1392.3,85.996c19.247,-1.545 38.012,0.673 56.307,6.653c22.983,10.033 35.78,27.603 38.39,52.71c0.942,7.139 1.628,14.303 2.048,21.493c0.512,45.374 0.686,90.749 0.512,136.125l-68.592,0c0.461,-47.105 -0.051,-94.186 -1.535,-141.242c-1.433,-6.55 -5.354,-10.814 -11.773,-12.794c-13.893,-3.842 -26.341,-1.283 -37.367,7.676c-4.699,7.097 -7.085,14.944 -7.167,23.541c-1.32,40.928 -1.832,81.868 -1.535,122.819l-67.568,0l0,-213.91l58.354,-0c-0.174,3.768 0,7.52 0.512,11.258c12.162,-7.745 25.297,-12.521 39.414,-14.329Z" style="fill-opacity:0.99;"/><path d="M753.481,87.02l70.639,-0l-0,58.339c-22.526,-0.171 -45.049,-0 -67.568,0.512c-5.872,1.435 -9.796,5.017 -11.773,10.746c-0.512,89.044 -0.683,178.088 -0.512,267.133l-58.354,0c-0.493,-92.824 0.019,-185.621 1.536,-278.391c9.215,-34.017 31.225,-53.463 66.032,-58.339Z" style="fill:#cd0000;fill-opacity:0.98;"/><path d="M846.642,87.02l58.354,-0c0.171,52.199 -0,104.397 -0.512,156.595c-5.524,30.084 -22.757,50.042 -51.699,59.874c-3.042,0.813 -6.113,1.496 -9.214,2.047c-25.592,0.512 -51.186,0.683 -76.781,0.512l-0,-58.339c23.207,0.171 46.412,-0 69.615,-0.512c4.58,-1.851 7.822,-5.091 9.725,-9.723c0.512,-50.151 0.683,-100.302 0.512,-150.454Z" style="fill:#cd0000;fill-opacity:0.98;"/><rect x="1185.5" y="89.067" width="68.591" height="213.911" style="fill-opacity:0.98;"/><path d="M785.217,167.876c9.057,-0.641 17.93,0.212 26.618,2.559c2.952,1.928 5.171,4.487 6.654,7.676c1.61,11.198 1.951,22.456 1.024,33.775c-1.651,8.814 -6.94,13.761 -15.868,14.841c-23.977,4.596 -34.897,-5.127 -32.76,-29.17c-0.072,-6.206 0.44,-12.347 1.535,-18.423c2.565,-5.811 6.83,-9.564 12.797,-11.258Z" style="fill:#cd0000;fill-opacity:0.97;"/></g></g></svg>